<svg width="200" height="200" viewBox="0 0 200 200" fill="none" xmlns="http://www.w3.org/2000/svg">
<path d="M187.304 70.9455C187.304 71.0314 187.304 71.1095 187.25 71.1955L169.531 152.344C168.985 155.201 167.46 157.779 165.219 159.633C162.977 161.487 160.159 162.501 157.25 162.5H42.7418C39.8341 162.499 37.0177 161.484 34.7775 159.63C32.5374 157.777 31.0135 155.2 30.4683 152.344L12.7496 71.1955C12.7496 71.1095 12.7105 71.0314 12.6949 70.9455C12.2099 68.2587 12.6179 65.4871 13.8565 63.0541C15.0951 60.6212 17.0962 58.6606 19.554 57.472C22.0118 56.2834 24.7912 55.9321 27.4674 56.4719C30.1437 57.0116 32.5696 58.4127 34.3746 60.4611L60.6793 88.8126L88.648 26.0861C88.6493 26.0601 88.6493 26.034 88.648 26.008C89.6481 23.8388 91.2488 22.0016 93.2606 20.7138C95.2723 19.4261 97.6109 18.7417 99.9996 18.7417C102.388 18.7417 104.727 19.4261 106.739 20.7138C108.75 22.0016 110.351 23.8388 111.351 26.008C111.35 26.034 111.35 26.0601 111.351 26.0861L139.32 88.8126L165.625 60.4611C167.433 58.4279 169.856 57.0405 172.525 56.5096C175.194 55.9786 177.963 56.3331 180.412 57.5193C182.861 58.7054 184.857 60.6583 186.095 63.0815C187.333 65.5047 187.747 68.2658 187.273 70.9455H187.304Z" fill="#FFCE8E"/>
</svg>
