<svg width="341" height="52" viewBox="0 0 341 52" fill="none" xmlns="http://www.w3.org/2000/svg">
<path d="M12.73 40.9C13.2433 40.9933 13.8733 41.0867 14.62 41.18C15.3667 41.2267 16.0667 41.25 16.72 41.25C18.3067 41.25 19.7533 41.0167 21.06 40.55C22.4133 40.0833 23.5567 39.36 24.49 38.38C25.47 37.4 26.2167 36.14 26.73 34.6C27.29 33.0133 27.57 31.1233 27.57 28.93C27.57 24.73 26.59 21.58 24.63 19.48C22.67 17.3333 20.0567 16.26 16.79 16.26C16.1367 16.26 15.46 16.2833 14.76 16.33C14.1067 16.3767 13.43 16.4467 12.73 16.54V40.9ZM16.65 51.12C15.8567 51.12 14.9467 51.0967 13.92 51.05C12.8933 51.0033 11.82 50.91 10.7 50.77C9.62667 50.63 8.53 50.4433 7.41 50.21C6.33667 50.0233 5.33333 49.7433 4.4 49.37C1.83333 48.39 0.55 46.6867 0.55 44.26V11.57C0.55 10.59 0.806667 9.84333 1.32 9.33C1.88 8.77 2.62667 8.32666 3.56 8C5.56667 7.34667 7.69 6.92666 9.93 6.74C12.17 6.50666 14.1767 6.39 15.95 6.39C19.59 6.39 22.88 6.83333 25.82 7.72C28.8067 8.60666 31.35 9.98333 33.45 11.85C35.5967 13.67 37.2533 15.98 38.42 18.78C39.5867 21.58 40.17 24.8933 40.17 28.72C40.17 32.4533 39.61 35.72 38.49 38.52C37.37 41.2733 35.76 43.6067 33.66 45.52C31.6067 47.3867 29.1333 48.7867 26.24 49.72C23.3467 50.6533 20.15 51.12 16.65 51.12ZM45.9811 6.53C45.9811 4.75666 46.5644 3.26333 47.7311 2.05C48.9444 0.836664 50.5311 0.229998 52.4911 0.229998C54.4511 0.229998 56.0144 0.836664 57.1811 2.05C58.3944 3.26333 59.0011 4.75666 59.0011 6.53C59.0011 8.30333 58.3944 9.79667 57.1811 11.01C56.0144 12.2233 54.4511 12.83 52.4911 12.83C50.5311 12.83 48.9444 12.2233 47.7311 11.01C46.5644 9.79667 45.9811 8.30333 45.9811 6.53ZM58.4411 49.93C57.9278 50.0233 57.1578 50.14 56.1311 50.28C55.1511 50.4667 54.1478 50.56 53.1211 50.56C52.0944 50.56 51.1611 50.49 50.3211 50.35C49.5278 50.21 48.8511 49.93 48.2911 49.51C47.7311 49.09 47.2878 48.53 46.9611 47.83C46.6811 47.0833 46.5411 46.1267 46.5411 44.96V16.47C47.0544 16.3767 47.8011 16.26 48.7811 16.12C49.8078 15.9333 50.8344 15.84 51.8611 15.84C52.8878 15.84 53.7978 15.91 54.5911 16.05C55.4311 16.19 56.1311 16.47 56.6911 16.89C57.2511 17.31 57.6711 17.8933 57.9511 18.64C58.2778 19.34 58.4411 20.2733 58.4411 21.44V49.93ZM85.197 24.31C84.0303 24.31 82.9103 24.4967 81.837 24.87C80.8103 25.2433 79.9003 25.8033 79.107 26.55C78.3603 27.25 77.7536 28.1367 77.287 29.21C76.8203 30.2833 76.587 31.5433 76.587 32.99C76.587 35.8833 77.4036 38.0533 79.037 39.5C80.717 40.9467 82.747 41.67 85.127 41.67C86.527 41.67 87.7403 41.5067 88.767 41.18C89.7936 40.8533 90.7036 40.5033 91.497 40.13C92.4303 40.7833 93.1303 41.5067 93.597 42.3C94.0636 43.0467 94.297 43.9567 94.297 45.03C94.297 46.9433 93.387 48.4367 91.567 49.51C89.747 50.5367 87.227 51.05 84.007 51.05C81.067 51.05 78.407 50.63 76.027 49.79C73.647 48.9033 71.5936 47.69 69.867 46.15C68.187 44.5633 66.8803 42.6733 65.947 40.48C65.0136 38.2867 64.547 35.86 64.547 33.2C64.547 30.12 65.037 27.4367 66.017 25.15C67.0436 22.8167 68.4203 20.9033 70.147 19.41C71.8736 17.9167 73.857 16.7967 76.097 16.05C78.3836 15.3033 80.787 14.93 83.307 14.93C86.667 14.93 89.257 15.5367 91.077 16.75C92.897 17.9633 93.807 19.5267 93.807 21.44C93.807 22.3267 93.597 23.1667 93.177 23.96C92.757 24.7067 92.267 25.36 91.707 25.92C90.9136 25.5467 89.957 25.1967 88.837 24.87C87.717 24.4967 86.5036 24.31 85.197 24.31ZM117.23 51.12C114.476 51.12 111.91 50.7467 109.53 50C107.196 49.2067 105.143 48.04 103.37 46.5C101.643 44.96 100.266 43.0233 99.2396 40.69C98.2596 38.3567 97.7696 35.6267 97.7696 32.5C97.7696 29.42 98.2596 26.7833 99.2396 24.59C100.266 22.35 101.596 20.53 103.23 19.13C104.863 17.6833 106.73 16.6333 108.83 15.98C110.93 15.28 113.076 14.93 115.27 14.93C117.743 14.93 119.983 15.3033 121.99 16.05C124.043 16.7967 125.793 17.8233 127.24 19.13C128.733 20.4367 129.876 22 130.67 23.82C131.51 25.64 131.93 27.6233 131.93 29.77C131.93 31.3567 131.486 32.57 130.6 33.41C129.713 34.25 128.476 34.7867 126.89 35.02L109.6 37.61C110.113 39.15 111.163 40.3167 112.75 41.11C114.336 41.8567 116.156 42.23 118.21 42.23C120.123 42.23 121.92 41.9967 123.6 41.53C125.326 41.0167 126.726 40.4333 127.8 39.78C128.546 40.2467 129.176 40.9 129.69 41.74C130.203 42.58 130.46 43.4667 130.46 44.4C130.46 46.5 129.48 48.0633 127.52 49.09C126.026 49.8833 124.346 50.42 122.48 50.7C120.613 50.98 118.863 51.12 117.23 51.12ZM115.27 23.61C114.15 23.61 113.17 23.7967 112.33 24.17C111.536 24.5433 110.883 25.0333 110.37 25.64C109.856 26.2 109.46 26.8533 109.18 27.6C108.946 28.3 108.806 29.0233 108.76 29.77L120.73 27.81C120.59 26.8767 120.076 25.9433 119.19 25.01C118.303 24.0767 116.996 23.61 115.27 23.61ZM181.911 39.57C181.305 40.0833 180.511 40.5033 179.531 40.83C178.598 41.11 177.501 41.25 176.241 41.25C174.561 41.25 173.161 41.04 172.041 40.62C170.968 40.2 170.268 39.4767 169.941 38.45C168.635 34.3433 167.561 31.03 166.721 28.51C165.881 25.9433 165.228 23.7033 164.761 21.79H164.411C164.271 24.5433 164.155 27.0633 164.061 29.35C164.015 31.59 163.968 33.7833 163.921 35.93C163.921 38.0767 163.875 40.2467 163.781 42.44C163.735 44.6333 163.641 47.06 163.501 49.72C162.895 49.9533 162.101 50.14 161.121 50.28C160.141 50.4667 159.161 50.56 158.181 50.56C156.128 50.56 154.518 50.2333 153.351 49.58C152.231 48.9267 151.671 47.7367 151.671 46.01L153.701 10.31C154.075 9.70333 154.891 9.05 156.151 8.35C157.411 7.65 159.185 7.3 161.471 7.3C163.945 7.3 165.881 7.69666 167.281 8.49C168.681 9.23666 169.708 10.4733 170.361 12.2C170.781 13.32 171.225 14.6033 171.691 16.05C172.205 17.4967 172.695 18.99 173.161 20.53C173.675 22.07 174.165 23.61 174.631 25.15C175.098 26.6433 175.518 27.9967 175.891 29.21H176.241C177.361 25.29 178.481 21.51 179.601 17.87C180.721 14.1833 181.748 11.1033 182.681 8.63C183.381 8.25666 184.268 7.95333 185.341 7.72C186.461 7.44 187.698 7.3 189.051 7.3C191.338 7.3 193.205 7.65 194.651 8.35C196.098 9.00333 196.938 9.96 197.171 11.22C197.358 12.1533 197.545 13.6 197.731 15.56C197.965 17.4733 198.198 19.6433 198.431 22.07C198.665 24.4967 198.898 27.0633 199.131 29.77C199.365 32.4767 199.575 35.09 199.761 37.61C199.995 40.0833 200.181 42.37 200.321 44.47C200.461 46.5233 200.555 48.11 200.601 49.23C199.808 49.6967 198.968 50.0233 198.081 50.21C197.241 50.4433 196.145 50.56 194.791 50.56C193.018 50.56 191.525 50.2567 190.311 49.65C189.098 49.0433 188.445 47.8533 188.351 46.08C188.071 40.9933 187.885 36.42 187.791 32.36C187.745 28.3 187.651 24.8933 187.511 22.14H187.161C186.695 23.96 186.018 26.2467 185.131 29C184.245 31.7533 183.171 35.2767 181.911 39.57ZM222.013 42.44C222.806 42.44 223.669 42.37 224.603 42.23C225.583 42.0433 226.306 41.81 226.773 41.53V35.93L221.733 36.35C220.426 36.4433 219.353 36.7233 218.513 37.19C217.673 37.6567 217.253 38.3567 217.253 39.29C217.253 40.2233 217.603 40.9933 218.303 41.6C219.049 42.16 220.286 42.44 222.013 42.44ZM221.453 14.93C223.973 14.93 226.259 15.1867 228.313 15.7C230.413 16.2133 232.186 17.0067 233.633 18.08C235.126 19.1067 236.269 20.4367 237.063 22.07C237.856 23.6567 238.253 25.5467 238.253 27.74V43.42C238.253 44.6333 237.903 45.6367 237.203 46.43C236.549 47.1767 235.756 47.83 234.823 48.39C231.789 50.21 227.519 51.12 222.013 51.12C219.539 51.12 217.299 50.8867 215.293 50.42C213.333 49.9533 211.629 49.2533 210.183 48.32C208.783 47.3867 207.686 46.1967 206.893 44.75C206.146 43.3033 205.773 41.6233 205.773 39.71C205.773 36.49 206.729 34.0167 208.643 32.29C210.556 30.5633 213.519 29.49 217.533 29.07L226.703 28.09V27.6C226.703 26.2467 226.096 25.29 224.883 24.73C223.716 24.1233 222.013 23.82 219.773 23.82C217.999 23.82 216.273 24.0067 214.593 24.38C212.913 24.7533 211.396 25.22 210.043 25.78C209.436 25.36 208.923 24.73 208.503 23.89C208.083 23.0033 207.873 22.0933 207.873 21.16C207.873 19.9467 208.153 18.99 208.713 18.29C209.319 17.5433 210.229 16.9133 211.443 16.4C212.796 15.8867 214.383 15.5133 216.203 15.28C218.069 15.0467 219.819 14.93 221.453 14.93ZM257.429 38.31C257.429 39.5233 257.802 40.3867 258.549 40.9C259.342 41.4133 260.439 41.67 261.839 41.67C262.539 41.67 263.262 41.6233 264.009 41.53C264.755 41.39 265.409 41.2267 265.969 41.04C266.389 41.5533 266.739 42.1367 267.019 42.79C267.345 43.3967 267.509 44.1433 267.509 45.03C267.509 46.8033 266.832 48.25 265.479 49.37C264.172 50.49 261.839 51.05 258.479 51.05C254.372 51.05 251.199 50.1167 248.959 48.25C246.765 46.3833 245.669 43.35 245.669 39.15V9.19C246.182 9.05 246.905 8.91 247.839 8.77C248.819 8.58333 249.845 8.49 250.919 8.49C252.972 8.49 254.559 8.86333 255.679 9.61C256.845 10.31 257.429 11.8267 257.429 14.16V18.64H266.599C266.879 19.1533 267.135 19.8067 267.369 20.6C267.649 21.3467 267.789 22.1867 267.789 23.12C267.789 24.7533 267.415 25.9433 266.669 26.69C265.969 27.39 265.012 27.74 263.799 27.74H257.429V38.31ZM292.326 24.31C291.159 24.31 290.039 24.4967 288.966 24.87C287.939 25.2433 287.029 25.8033 286.236 26.55C285.489 27.25 284.883 28.1367 284.416 29.21C283.949 30.2833 283.716 31.5433 283.716 32.99C283.716 35.8833 284.533 38.0533 286.166 39.5C287.846 40.9467 289.876 41.67 292.256 41.67C293.656 41.67 294.869 41.5067 295.896 41.18C296.923 40.8533 297.833 40.5033 298.626 40.13C299.559 40.7833 300.259 41.5067 300.726 42.3C301.193 43.0467 301.426 43.9567 301.426 45.03C301.426 46.9433 300.516 48.4367 298.696 49.51C296.876 50.5367 294.356 51.05 291.136 51.05C288.196 51.05 285.536 50.63 283.156 49.79C280.776 48.9033 278.723 47.69 276.996 46.15C275.316 44.5633 274.009 42.6733 273.076 40.48C272.143 38.2867 271.676 35.86 271.676 33.2C271.676 30.12 272.166 27.4367 273.146 25.15C274.173 22.8167 275.549 20.9033 277.276 19.41C279.003 17.9167 280.986 16.7967 283.226 16.05C285.513 15.3033 287.916 14.93 290.436 14.93C293.796 14.93 296.386 15.5367 298.206 16.75C300.026 17.9633 300.936 19.5267 300.936 21.44C300.936 22.3267 300.726 23.1667 300.306 23.96C299.886 24.7067 299.396 25.36 298.836 25.92C298.043 25.5467 297.086 25.1967 295.966 24.87C294.846 24.4967 293.633 24.31 292.326 24.31ZM340.994 49.93C340.527 50.07 339.781 50.21 338.754 50.35C337.774 50.49 336.747 50.56 335.674 50.56C334.647 50.56 333.714 50.49 332.874 50.35C332.081 50.21 331.404 49.93 330.844 49.51C330.284 49.09 329.841 48.53 329.514 47.83C329.234 47.0833 329.094 46.1267 329.094 44.96V29.42C329.094 27.5067 328.604 26.1767 327.624 25.43C326.691 24.6367 325.524 24.24 324.124 24.24C323.191 24.24 322.304 24.3567 321.464 24.59C320.624 24.8233 319.947 25.1033 319.434 25.43V49.93C318.967 50.07 318.221 50.21 317.194 50.35C316.214 50.49 315.187 50.56 314.114 50.56C313.087 50.56 312.154 50.49 311.314 50.35C310.521 50.21 309.844 49.93 309.284 49.51C308.724 49.09 308.281 48.53 307.954 47.83C307.674 47.0833 307.534 46.1267 307.534 44.96V4.36C308.047 4.26666 308.794 4.15 309.774 4.01C310.801 3.82333 311.827 3.73 312.854 3.73C313.881 3.73 314.791 3.8 315.584 3.94C316.424 4.08 317.124 4.36 317.684 4.78C318.244 5.2 318.664 5.78333 318.944 6.53C319.271 7.23 319.434 8.16333 319.434 9.33V16.19C320.041 15.9567 320.951 15.7 322.164 15.42C323.424 15.0933 324.801 14.93 326.294 14.93C330.914 14.93 334.507 16.0967 337.074 18.43C339.687 20.7167 340.994 24.1467 340.994 28.72V49.93Z" fill="black"/>
</svg>
